<svg version="1" xmlns="http://www.w3.org/2000/svg" width="682.667" height="682.667" viewBox="0 0 512.000000 512.000000"><path d="M39.8 17.7c-.3 19.9-1 22.5-7.8 29.3-5.9 5.9-10.2 7.4-21.7 7.8L0 55.2v53.6l10.3.4c7.6.2 11.2.8 14.2 2.3 5 2.5 10.5 8 13 13 2 3.9 2 6.7 2 128.5s0 124.6-2 128.5c-2.5 5-8 10.5-13 13-3 1.5-6.6 2.1-14.2 2.3l-10.3.4v53.6l10.3.4c11.5.4 15.8 1.9 21.7 7.8 7 7 7.5 9.1 7.8 32.3l.3 20.7h53.8l.3-20.7c.3-18.3.5-21.3 2.3-24.8 2.5-5 8-10.5 13-13 3.9-2 6.8-2 146.5-2s142.6 0 146.5 2c5 2.5 10.5 8 13 13 1.8 3.5 2 6.5 2.3 24.7l.3 20.8h53.8l.3-20.8c.3-23.1.8-25.2 7.8-32.2 5.9-5.9 10.2-7.4 21.8-7.8l10.2-.4v-53.6l-10.2-.4c-7.7-.2-11.3-.8-14.3-2.3-5-2.5-10.5-8-13-13-2-3.9-2-6.7-2-128.5s0-124.6 2-128.5c2.5-5 8-10.5 13-13 3-1.5 6.6-2.1 14.3-2.3l10.2-.4V55.2l-10.2-.4c-11.6-.4-15.9-1.9-21.8-7.8-6.8-6.8-7.5-9.4-7.8-29.3L471.9 0h-53.8l-.3 17.7c-.3 15.3-.6 18.4-2.3 21.8-2.5 5-8 10.5-13 13-3.9 2-6.8 2-146.5 2s-142.6 0-146.5-2c-5-2.5-10.5-8-13-13-1.7-3.4-2-6.5-2.3-21.8L93.9 0H40.1l-.3 17.7z"/></svg>